<svg width="182" height="64" viewBox="0 0 182 64" fill="none" xmlns="http://www.w3.org/2000/svg">
<path d="M39.828 26.568L40.7094 24.7727H40.7093L39.828 26.568ZM47.31 33.19L45.6255 34.2681L45.6304 34.2759L45.6355 34.2836L47.31 33.19ZM47.052 53.572L45.3831 52.4699L47.052 53.572ZM38.796 60.624L39.6418 62.4364L39.6483 62.4333L39.6547 62.4303L38.796 60.624ZM7.492 55.292L6.02177 56.6479L7.492 55.292ZM4.224 15.646L2.45642 14.7102L4.224 15.646ZM14.974 4.552L14.0193 2.79453L14.0102 2.79956L14.974 4.552ZM40.258 1.88599L39.764 3.82402L39.7861 3.82965L39.8083 3.83478L40.258 1.88599ZM47.826 4.896L49.6118 5.79642L50.4252 4.18326L48.9028 3.2106L47.826 4.896ZM42.666 15.13L41.5492 16.7892L43.4308 18.0556L44.4518 16.0304L42.666 15.13ZM19.274 16.592L20.6882 18.0062L19.274 16.592ZM14.458 29.578L12.4596 29.4973L12.253 34.6114L15.8722 30.9922L14.458 29.578ZM33.722 50.218L32.428 48.693L32.4164 48.7028L32.405 48.7128L33.722 50.218ZM33.722 37.146L32.379 38.628L32.4032 38.6499L32.428 38.671L33.722 37.146ZM18.844 37.232L20.1419 38.7537L20.1547 38.7428L20.1672 38.7317L18.844 37.232ZM18.758 50.132L20.0782 48.6297H20.0782L18.758 50.132ZM29.336 26.246C32.9008 26.246 36.0925 26.9622 38.9467 28.3633L40.7093 24.7727C37.2568 23.0778 33.4539 22.246 29.336 22.246V26.246ZM38.9467 28.3633C41.7828 29.7556 43.9945 31.7197 45.6255 34.2681L48.9945 32.1119C46.9562 28.927 44.1799 26.4764 40.7094 24.7727L38.9467 28.3633ZM45.6355 34.2836C47.2346 36.7323 48.062 39.6112 48.062 42.994H52.062C52.062 38.9235 51.0547 35.2663 48.9845 32.0964L45.6355 34.2836ZM48.062 42.994C48.062 46.6571 47.1519 49.7913 45.3831 52.4699L48.7209 54.6741C50.9654 51.2754 52.062 47.3576 52.062 42.994H48.062ZM45.3831 52.4699C43.5901 55.1849 41.1272 57.3012 37.9373 58.8177L39.6547 62.4303C43.4595 60.6214 46.5005 58.0364 48.7209 54.6741L45.3831 52.4699ZM37.9502 58.8116C34.8047 60.2795 31.257 61.032 27.272 61.032V65.032C31.7723 65.032 35.9073 64.1791 39.6418 62.4364L37.9502 58.8116ZM27.272 61.032C19.281 61.032 13.2671 58.604 8.96223 53.9361L6.02177 56.6479C11.2343 62.3 18.407 65.032 27.272 65.032V61.032ZM8.96223 53.9361C4.65181 49.2622 2.354 42.4474 2.354 33.19H-1.646C-1.646 43.0819 0.814857 51.0018 6.02177 56.6479L8.96223 53.9361ZM2.354 33.19C2.354 26.6173 3.59627 21.1062 5.99158 16.5818L2.45642 14.7102C-0.308268 19.9324 -1.646 26.1173 -1.646 33.19H2.354ZM5.99158 16.5818C8.3993 12.0338 11.7117 8.6288 15.9378 6.30443L14.0102 2.79956C9.06296 5.52053 5.2087 9.51148 2.45642 14.7102L5.99158 16.5818ZM15.9287 6.30944C20.2383 3.96841 25.2617 2.768 31.056 2.768V-1.232C24.6956 -1.232 18.9977 0.0902557 14.0193 2.79455L15.9287 6.30944ZM31.056 2.768C34.1107 2.768 37.0114 3.12239 39.764 3.82402L40.752 -0.0520344C37.6566 -0.841061 34.4227 -1.232 31.056 -1.232V2.768ZM39.8083 3.83478C42.6203 4.4837 44.9188 5.41198 46.7492 6.58139L48.9028 3.2106C46.6052 1.74268 43.8584 0.664289 40.7077 -0.062788L39.8083 3.83478ZM46.0402 3.99557L40.8802 14.2296L44.4518 16.0304L49.6118 5.79642L46.0402 3.99557ZM43.7828 13.4708C40.3948 11.1905 36.2236 10.12 31.4 10.12V14.12C35.6351 14.12 38.9746 15.0562 41.5492 16.7892L43.7828 13.4708ZM31.4 10.12C25.8859 10.12 21.2927 11.7448 17.8598 15.1778L20.6882 18.0062C23.2179 15.4765 26.7087 14.12 31.4 14.12V10.12ZM17.8598 15.1778C14.4149 18.6227 12.7021 23.4965 12.4596 29.4973L16.4564 29.6587C16.6726 24.3075 18.1704 20.524 20.6882 18.0062L17.8598 15.1778ZM15.8722 30.9922C18.9585 27.9059 23.3541 26.246 29.336 26.246V22.246C22.5899 22.246 17.0668 24.1408 13.0438 28.1638L15.8722 30.9922ZM26.498 54.626C29.8511 54.626 32.7631 53.7146 35.039 51.7232L32.405 48.7128C31.0116 49.9321 29.1075 50.626 26.498 50.626V54.626ZM35.016 51.743C37.4081 49.7133 38.56 46.9492 38.56 43.682H34.56C34.56 45.9188 33.8199 47.512 32.428 48.693L35.016 51.743ZM38.56 43.682C38.56 40.4148 37.4081 37.6507 35.016 35.621L32.428 38.671C33.8199 39.852 34.56 41.4452 34.56 43.682H38.56ZM35.065 35.664C32.7767 33.5903 29.7891 32.652 26.326 32.652V36.652C29.0549 36.652 30.9979 37.3764 32.379 38.628L35.065 35.664ZM26.326 32.652C22.8872 32.652 19.8959 33.6366 17.5208 35.7323L20.1672 38.7317C21.6907 37.3874 23.6875 36.652 26.326 36.652V32.652ZM17.5461 35.7103C15.1365 37.7656 13.92 40.4789 13.92 43.682H17.92C17.92 41.6105 18.6529 40.0237 20.1419 38.7537L17.5461 35.7103ZM13.92 43.682C13.92 46.8638 15.0911 49.5721 17.4378 51.6343L20.0782 48.6297C18.6409 47.3666 17.92 45.7749 17.92 43.682H13.92ZM17.4378 51.6343C19.7924 53.7035 22.892 54.626 26.498 54.626V50.626C23.568 50.626 21.5076 49.8858 20.0782 48.6297L17.4378 51.6343ZM75.7518 59.334L76.8207 57.6436L75.7518 59.334ZM66.5498 48.67L64.7352 49.5109L64.7414 49.5243L64.7478 49.5376L66.5498 48.67ZM66.5498 15.216L64.7437 14.357L64.7392 14.3666L66.5498 15.216ZM75.7518 4.466L76.8207 6.15639V6.15638L75.7518 4.466ZM102.412 4.466L101.343 6.15638V6.15639L102.412 4.466ZM111.528 15.216L109.713 16.0569L109.719 16.0703L109.726 16.0836L111.528 15.216ZM111.528 48.67L109.722 47.811L109.717 47.8206L111.528 48.67ZM102.412 59.334L101.343 57.6436L102.412 59.334ZM97.6818 46.52L96.0224 45.4036L96.0153 45.4141L96.0084 45.4247L97.6818 46.52ZM97.6818 17.28L96.0084 18.3753L96.0153 18.3859L96.0224 18.3964L97.6818 17.28ZM80.4818 17.28L78.8224 16.1636L78.8153 16.1741L78.8084 16.1847L80.4818 17.28ZM80.4818 46.52L78.8084 47.6153L78.8153 47.6259L78.8224 47.6364L80.4818 46.52ZM89.0818 61.032C84.4402 61.032 80.3735 59.8902 76.8207 57.6436L74.6829 61.0244C78.9274 63.7084 83.7474 65.032 89.0818 65.032V61.032ZM76.8207 57.6436C73.2749 55.4014 70.445 52.1497 68.3518 47.8024L64.7478 49.5376C67.1267 54.4783 70.4314 58.336 74.6829 61.0244L76.8207 57.6436ZM68.3644 47.8291C66.3345 43.4486 65.2818 38.1589 65.2818 31.9H61.2818C61.2818 38.5984 62.4078 44.4887 64.7352 49.5109L68.3644 47.8291ZM65.2818 31.9C65.2818 25.6401 66.3348 20.3833 68.3605 16.0654L64.7392 14.3666C62.4075 19.3367 61.2818 25.2026 61.2818 31.9H65.2818ZM68.3559 16.075C70.4511 11.6698 73.2811 8.39465 76.8207 6.15639L74.6829 2.77561C70.4251 5.46801 67.1205 9.35957 64.7437 14.357L68.3559 16.075ZM76.8207 6.15638C80.3735 3.90977 84.4402 2.768 89.0818 2.768V-1.232C83.7474 -1.232 78.9274 0.0915565 74.6829 2.77561L76.8207 6.15638ZM89.0818 2.768C93.7234 2.768 97.7901 3.90977 101.343 6.15638L103.481 2.77561C99.2362 0.0915565 94.4162 -1.232 89.0818 -1.232V2.768ZM101.343 6.15639C104.877 8.39147 107.676 11.6601 109.713 16.0569L113.342 14.3751C111.023 9.36918 107.744 5.47119 103.481 2.77561L101.343 6.15639ZM109.726 16.0836C111.802 20.3966 112.882 25.6467 112.882 31.9H116.882C116.882 25.196 115.725 19.3234 113.33 14.3484L109.726 16.0836ZM112.882 31.9C112.882 38.1523 111.803 43.4354 109.722 47.811L113.334 49.529C115.725 44.5019 116.882 38.605 116.882 31.9H112.882ZM109.717 47.8206C107.682 52.1592 104.884 55.4045 101.343 57.6436L103.481 61.0244C107.737 58.3328 111.017 54.4688 113.338 49.5194L109.717 47.8206ZM101.343 57.6436C97.7901 59.8902 93.7234 61.032 89.0818 61.032V65.032C94.4162 65.032 99.2362 63.7084 103.481 61.0244L101.343 57.6436ZM89.0818 53.25C93.4476 53.25 96.9338 51.3147 99.3552 47.6153L96.0084 45.4247C94.3018 48.032 92.0547 49.25 89.0818 49.25V53.25ZM99.3413 47.6364C101.795 43.9894 102.864 38.6327 102.864 31.9H98.8638C98.8638 38.354 97.8116 42.7439 96.0224 45.4036L99.3413 47.6364ZM102.864 31.9C102.864 25.1673 101.795 19.8106 99.3413 16.1636L96.0224 18.3964C97.8116 21.0561 98.8638 25.446 98.8638 31.9H102.864ZM99.3552 16.1847C96.9338 12.4853 93.4476 10.55 89.0818 10.55V14.55C92.0547 14.55 94.3018 15.768 96.0084 18.3753L99.3552 16.1847ZM89.0818 10.55C84.7637 10.55 81.2922 12.4923 78.8224 16.1636L82.1413 18.3964C83.9141 15.761 86.1759 14.55 89.0818 14.55V10.55ZM78.8084 16.1847C76.4247 19.8265 75.3858 25.1737 75.3858 31.9H79.3858C79.3858 25.4397 80.411 21.0401 82.1552 18.3753L78.8084 16.1847ZM75.3858 31.9C75.3858 38.6263 76.4247 43.9735 78.8084 47.6153L82.1552 45.4247C80.411 42.7599 79.3858 38.3603 79.3858 31.9H75.3858ZM78.8224 47.6364C81.2922 51.3077 84.7637 53.25 89.0818 53.25V49.25C86.1759 49.25 83.9141 48.039 82.1413 45.4036L78.8224 47.6364ZM142.291 59.334L143.36 57.6436L142.291 59.334ZM133.089 48.67L131.274 49.5109L131.281 49.5243L131.287 49.5376L133.089 48.67ZM133.089 15.216L131.283 14.357L131.278 14.3666L133.089 15.216ZM142.291 4.466L143.36 6.15639V6.15638L142.291 4.466ZM168.951 4.466L167.882 6.15638V6.15639L168.951 4.466ZM178.067 15.216L176.252 16.0569L176.259 16.0703L176.265 16.0836L178.067 15.216ZM178.067 48.67L176.261 47.811L176.256 47.8206L178.067 48.67ZM168.951 59.334L167.882 57.6436L168.951 59.334ZM164.221 46.52L162.562 45.4036L162.554 45.4141L162.548 45.4247L164.221 46.52ZM164.221 17.28L162.548 18.3753L162.554 18.3859L162.562 18.3964L164.221 17.28ZM147.021 17.28L145.362 16.1636L145.354 16.1741L145.348 16.1847L147.021 17.28ZM147.021 46.52L145.348 47.6153L145.354 47.6259L145.362 47.6364L147.021 46.52ZM155.621 61.032C150.979 61.032 146.913 59.8902 143.36 57.6436L141.222 61.0244C145.467 63.7084 150.287 65.032 155.621 65.032V61.032ZM143.36 57.6436C139.814 55.4014 136.984 52.1497 134.891 47.8024L131.287 49.5376C133.666 54.4783 136.971 58.336 141.222 61.0244L143.36 57.6436ZM134.904 47.8291C132.874 43.4486 131.821 38.1589 131.821 31.9H127.821C127.821 38.5984 128.947 44.4887 131.274 49.5109L134.904 47.8291ZM131.821 31.9C131.821 25.6401 132.874 20.3833 134.9 16.0654L131.278 14.3666C128.947 19.3367 127.821 25.2026 127.821 31.9H131.821ZM134.895 16.075C136.99 11.6698 139.82 8.39465 143.36 6.15639L141.222 2.77561C136.964 5.46801 133.66 9.35957 131.283 14.357L134.895 16.075ZM143.36 6.15638C146.913 3.90977 150.979 2.768 155.621 2.768V-1.232C150.287 -1.232 145.467 0.0915565 141.222 2.77561L143.36 6.15638ZM155.621 2.768C160.263 2.768 164.329 3.90977 167.882 6.15638L170.02 2.77561C165.775 0.0915565 160.955 -1.232 155.621 -1.232V2.768ZM167.882 6.15639C171.417 8.39147 174.215 11.6601 176.252 16.0569L179.882 14.3751C177.562 9.36918 174.283 5.47119 170.02 2.77561L167.882 6.15639ZM176.265 16.0836C178.342 20.3966 179.421 25.6467 179.421 31.9H183.421C183.421 25.196 182.264 19.3234 179.869 14.3484L176.265 16.0836ZM179.421 31.9C179.421 38.1523 178.342 43.4354 176.261 47.811L179.873 49.529C182.264 44.5019 183.421 38.605 183.421 31.9H179.421ZM176.256 47.8206C174.221 52.1592 171.423 55.4045 167.882 57.6436L170.02 61.0244C174.276 58.3328 177.556 54.4688 179.878 49.5194L176.256 47.8206ZM167.882 57.6436C164.329 59.8902 160.263 61.032 155.621 61.032V65.032C160.955 65.032 165.775 63.7084 170.02 61.0244L167.882 57.6436ZM155.621 53.25C159.987 53.25 163.473 51.3147 165.894 47.6153L162.548 45.4247C160.841 48.032 158.594 49.25 155.621 49.25V53.25ZM165.88 47.6364C168.334 43.9894 169.403 38.6327 169.403 31.9H165.403C165.403 38.354 164.351 42.7439 162.562 45.4036L165.88 47.6364ZM169.403 31.9C169.403 25.1673 168.334 19.8106 165.88 16.1636L162.562 18.3964C164.351 21.0561 165.403 25.446 165.403 31.9H169.403ZM165.894 16.1847C163.473 12.4853 159.987 10.55 155.621 10.55V14.55C158.594 14.55 160.841 15.768 162.548 18.3753L165.894 16.1847ZM155.621 10.55C151.303 10.55 147.831 12.4923 145.362 16.1636L148.68 18.3964C150.453 15.761 152.715 14.55 155.621 14.55V10.55ZM145.348 16.1847C142.964 19.8265 141.925 25.1737 141.925 31.9H145.925C145.925 25.4397 146.95 21.0401 148.694 18.3753L145.348 16.1847ZM141.925 31.9C141.925 38.6263 142.964 43.9735 145.348 47.6153L148.694 45.4247C146.95 42.7599 145.925 38.3603 145.925 31.9H141.925ZM145.362 47.6364C147.831 51.3077 151.303 53.25 155.621 53.25V49.25C152.715 49.25 150.453 48.039 148.68 45.4036L145.362 47.6364Z" fill="url(#paint0_linear_188_5977)"/>
<defs>
<linearGradient id="paint0_linear_188_5977" x1="-3" y1="31.5" x2="185" y2="31.5" gradientUnits="userSpaceOnUse">
<stop stop-color="#F7941D"/>
<stop offset="1" stop-color="#27AAE1"/>
</linearGradient>
</defs>
</svg>
