<svg width="195" height="64" viewBox="0 0 195 64" fill="none" xmlns="http://www.w3.org/2000/svg">
<path d="M41.548 30.352L40.519 28.637L37.3949 30.5115L40.6536 32.1409L41.548 30.352ZM48.342 36.2L46.6596 37.2815L46.6687 37.2955L46.6779 37.3094L48.342 36.2ZM47.568 54.346L49.152 55.567L49.1581 55.5591L49.1641 55.5512L47.568 54.346ZM38.624 60.796L39.3476 62.6605L39.3596 62.6559L39.3716 62.651L38.624 60.796ZM11.964 60.796L11.2067 62.6471L11.2235 62.654L11.2405 62.6605L11.964 60.796ZM3.106 54.346L1.49424 55.5302L1.5079 55.5487L1.52198 55.567L3.106 54.346ZM2.332 36.2L0.6679 35.0906L0.658655 35.1045L0.649643 35.1185L2.332 36.2ZM9.126 30.352L10.0344 32.1338L13.2082 30.5158L10.1742 28.6487L9.126 30.352ZM3.966 25.192L2.22663 26.1792L2.23247 26.1895L2.23844 26.1997L3.966 25.192ZM13.254 2.918L13.9862 4.77913L13.9994 4.77396L14.0124 4.76861L13.254 2.918ZM37.42 2.918L36.6616 4.76861L36.6797 4.77605L36.698 4.78313L37.42 2.918ZM45.676 8.852L47.2717 7.64633L47.2717 7.64633L45.676 8.852ZM46.794 25.192L48.5216 26.1997L48.5275 26.1895L48.5334 26.1792L46.794 25.192ZM18.5 13.066L19.7428 14.633L19.7494 14.6277L18.5 13.066ZM18.5 23.988L17.2572 25.555H17.2572L18.5 23.988ZM32.174 13.066L30.9246 14.6277L30.9407 14.6406L30.9571 14.6532L32.174 13.066ZM33.55 50.476L34.7716 52.0596L34.7779 52.0547L33.55 50.476ZM33.55 37.834L32.3284 39.4176L32.3391 39.4259L32.35 39.434L33.55 37.834ZM17.124 37.834L15.9024 36.2504L17.124 37.834ZM17.124 50.476L15.9024 52.0596H15.9024L17.124 50.476ZM40.6536 32.1409C43.367 33.4976 45.336 35.2224 46.6596 37.2815L50.0244 35.1185C48.252 32.3616 45.6917 30.1878 42.4424 28.5631L40.6536 32.1409ZM46.6779 37.3094C48.0446 39.3594 48.75 41.7466 48.75 44.542H52.75C52.75 41.0308 51.8501 37.8566 50.0061 35.0906L46.6779 37.3094ZM48.75 44.542C48.75 47.8609 47.8152 50.6997 45.9719 53.1408L49.1641 55.5512C51.5635 52.3736 52.75 48.6764 52.75 44.542H48.75ZM45.984 53.125C44.1185 55.5451 41.4512 57.5004 37.8764 58.941L39.3716 62.651C43.4795 60.9956 46.7749 58.6509 49.152 55.567L45.984 53.125ZM37.9005 58.9315C34.3352 60.315 30.1457 61.032 25.294 61.032V65.032C30.533 65.032 35.2301 64.2583 39.3476 62.6605L37.9005 58.9315ZM25.294 61.032C20.4423 61.032 16.2528 60.315 12.6876 58.9315L11.2405 62.6605C15.3579 64.2583 20.055 65.032 25.294 65.032V61.032ZM12.7213 58.9449C9.2055 57.5066 6.56081 55.5519 4.69002 53.125L1.52198 55.567C3.89386 58.6441 7.1545 60.9894 11.2067 62.6471L12.7213 58.9449ZM4.71776 53.1618C2.92385 50.7201 2.01 47.8739 2.01 44.542H-1.99C-1.99 48.6635 -0.839853 52.3532 1.49424 55.5302L4.71776 53.1618ZM2.01 44.542C2.01 41.7318 2.69455 39.3345 4.01436 37.2815L0.649643 35.1185C-1.12655 37.8815 -1.99 41.0456 -1.99 44.542H2.01ZM3.9961 37.3094C5.38699 35.2231 7.37416 33.49 10.0344 32.1338L8.21762 28.5702C5.02984 30.1953 2.48768 32.3609 0.6679 35.0906L3.9961 37.3094ZM10.1742 28.6487C8.19017 27.4277 6.71582 25.9367 5.69356 24.1843L2.23844 26.1997C3.62418 28.5753 5.58984 30.5243 8.07781 32.0553L10.1742 28.6487ZM5.70537 24.2048C4.68964 22.4152 4.16 20.3537 4.16 17.968H0.16C0.16 20.9716 0.834364 23.7262 2.22663 26.1792L5.70537 24.2048ZM4.16 17.968C4.16 14.8682 5.01457 12.2616 6.67974 10.0577L3.48827 7.64633C1.25476 10.6024 0.16 14.0732 0.16 17.968H4.16ZM6.67974 10.0577C8.37312 7.81642 10.7751 6.04253 13.9862 4.77913L12.5218 1.05687C8.73823 2.54546 5.69355 4.72757 3.48827 7.64633L6.67974 10.0577ZM14.0124 4.76861C17.2264 3.45141 20.9743 2.768 25.294 2.768V-1.232C20.555 -1.232 16.2763 -0.482079 12.4956 1.06739L14.0124 4.76861ZM25.294 2.768C29.6747 2.768 33.4504 3.45255 36.6616 4.76861L38.1784 1.06739C34.395 -0.483225 30.0867 -1.232 25.294 -1.232V2.768ZM36.698 4.78313C39.9686 6.04916 42.3926 7.82398 44.0803 10.0577L47.2717 7.64633C45.0607 4.72001 41.9807 2.53883 38.142 1.05286L36.698 4.78313ZM44.0803 10.0577C45.7454 12.2616 46.6 14.8682 46.6 17.968H50.6C50.6 14.0732 49.5052 10.6024 47.2717 7.64633L44.0803 10.0577ZM46.6 17.968C46.6 20.3537 46.0704 22.4152 45.0546 24.2048L48.5334 26.1792C49.9256 23.7262 50.6 20.9716 50.6 17.968H46.6ZM45.0664 24.1843C44.0515 25.9241 42.5587 27.4132 40.519 28.637L42.577 32.067C45.124 30.5388 47.1285 28.5879 48.5216 26.1997L45.0664 24.1843ZM25.294 9.002C22.1577 9.002 19.4132 9.7742 17.2506 11.5043L19.7494 14.6277C21.0268 13.6058 22.8117 13.002 25.294 13.002V9.002ZM17.2572 11.499C15.0604 13.2413 14.006 15.6838 14.006 18.57H18.006C18.006 16.7549 18.6143 15.528 19.7428 14.633L17.2572 11.499ZM14.006 18.57C14.006 21.4173 15.0736 23.8231 17.2572 25.555L19.7428 22.421C18.6011 21.5155 18.006 20.3094 18.006 18.57H14.006ZM17.2572 25.555C19.3798 27.2384 22.1337 27.966 25.294 27.966V23.966C22.721 23.966 20.9456 23.3749 19.7428 22.421L17.2572 25.555ZM25.294 27.966C28.4589 27.966 31.2238 27.2366 33.3909 25.5752L30.9571 22.4008C29.6842 23.3767 27.8624 23.966 25.294 23.966V27.966ZM33.3909 25.5752C35.637 23.8532 36.754 21.4434 36.754 18.57H32.754C32.754 20.2833 32.151 21.4855 30.9571 22.4008L33.3909 25.5752ZM36.754 18.57C36.754 15.658 35.6508 13.2114 33.3909 11.4788L30.9571 14.6532C32.1372 15.5579 32.754 16.7807 32.754 18.57H36.754ZM33.4234 11.5043C31.2541 9.76884 28.4766 9.002 25.294 9.002V13.002C27.8447 13.002 29.6539 13.6112 30.9246 14.6277L33.4234 11.5043ZM25.294 54.798C29.0681 54.798 32.3034 53.9636 34.7716 52.0596L32.3284 48.8924C30.7833 50.0844 28.5146 50.798 25.294 50.798V54.798ZM34.7779 52.0547C37.334 50.0666 38.646 47.3603 38.646 44.112H34.646C34.646 46.1384 33.894 47.6747 32.3221 48.8973L34.7779 52.0547ZM38.646 44.112C38.646 40.8616 37.3306 38.1695 34.75 36.234L32.35 39.434C33.8974 40.5945 34.646 42.0877 34.646 44.112H38.646ZM34.7716 36.2504C32.3034 34.3464 29.0681 33.512 25.294 33.512V37.512C28.5146 37.512 30.7833 38.2256 32.3284 39.4176L34.7716 36.2504ZM25.294 33.512C21.5684 33.512 18.3655 34.3504 15.9024 36.2504L18.3456 39.4176C19.8959 38.2216 22.1396 37.512 25.294 37.512V33.512ZM15.9024 36.2504C13.3821 38.1947 12.114 40.8841 12.114 44.112H16.114C16.114 42.0653 16.8526 40.5693 18.3456 39.4176L15.9024 36.2504ZM12.114 44.112C12.114 47.3812 13.3699 50.106 15.9024 52.0596L18.3456 48.8924C16.8647 47.75 16.114 46.2322 16.114 44.112H12.114ZM15.9024 52.0596C18.3655 53.9596 21.5684 54.798 25.294 54.798V50.798C22.1396 50.798 19.8959 50.0884 18.3456 48.8924L15.9024 52.0596ZM110.275 50.648H112.275V48.648H110.275V50.648ZM110.275 62V64H112.275V62H110.275ZM64.7814 62H62.7814V64H64.7814V62ZM64.7814 52.97L63.4082 51.516L62.7814 52.1079V52.97H64.7814ZM88.0014 31.04L89.3747 32.494L89.3816 32.4875L88.0014 31.04ZM92.9894 25.02L94.7659 25.9388L94.7722 25.9267L94.7783 25.9144L92.9894 25.02ZM91.7854 14.442L90.516 15.9874L90.5458 16.012L90.5767 16.0354L91.7854 14.442ZM77.5094 14.012L78.3444 15.8293L78.3645 15.8201L78.3844 15.8105L77.5094 14.012ZM72.1774 18.484L71.0945 20.1654L72.697 21.1976L73.8049 19.6465L72.1774 18.484ZM62.0294 11.948L60.3695 10.8323L59.2318 12.5251L60.9465 13.6294L62.0294 11.948ZM71.7474 3.778L72.6014 5.58649L72.6117 5.58167L72.6218 5.57673L71.7474 3.778ZM97.6334 3.004L96.8153 4.82902L96.8341 4.83745L96.8531 4.8455L97.6334 3.004ZM105.459 9.196L103.806 10.3216L103.82 10.3419L103.834 10.3618L105.459 9.196ZM106.233 27.772L108.036 28.6375L106.233 27.772ZM98.2354 37.576L96.8754 36.1097L96.8689 36.1157L96.8625 36.1217L98.2354 37.576ZM84.3894 50.648L83.0165 49.1937L79.3577 52.648H84.3894V50.648ZM108.275 50.648V62H112.275V50.648H108.275ZM110.275 60H64.7814V64H110.275V60ZM66.7814 62V52.97H62.7814V62H66.7814ZM66.1547 54.424L89.3747 32.494L86.6282 29.586L63.4082 51.516L66.1547 54.424ZM89.3816 32.4875C91.8984 30.0877 93.7524 27.8983 94.7659 25.9388L91.213 24.1012C90.5065 25.467 89.0351 27.291 86.6213 29.5925L89.3816 32.4875ZM94.7783 25.9144C95.7554 23.9602 96.2794 21.9644 96.2794 19.946H92.2794C92.2794 21.2529 91.9435 22.6398 91.2006 24.1256L94.7783 25.9144ZM96.2794 19.946C96.2794 17.0216 95.2364 14.5496 92.9942 12.8486L90.5767 16.0354C91.6598 16.8571 92.2794 18.0544 92.2794 19.946H96.2794ZM93.0549 12.8965C90.9476 11.1655 88.0344 10.464 84.6474 10.464V14.464C87.5671 14.464 89.4127 15.0812 90.516 15.9874L93.0549 12.8965ZM84.6474 10.464C81.743 10.464 79.0591 11.034 76.6345 12.2135L78.3844 15.8105C80.2024 14.926 82.2772 14.464 84.6474 14.464V10.464ZM76.6744 12.1946C74.2184 13.3231 72.174 15.0478 70.55 17.3215L73.8049 19.6465C75.0475 17.9068 76.5578 16.6502 78.3444 15.8293L76.6744 12.1946ZM73.2604 16.8026L63.1124 10.2666L60.9465 13.6294L71.0945 20.1654L73.2604 16.8026ZM63.6893 13.0637C65.8221 9.89054 68.7715 7.39507 72.6014 5.58649L70.8934 1.9695C66.4674 4.05959 62.9381 7.0108 60.3695 10.8323L63.6893 13.0637ZM72.6218 5.57673C76.4366 3.72233 80.8595 2.768 85.9374 2.768V-1.232C80.3514 -1.232 75.3143 -0.179672 70.8731 1.97926L72.6218 5.57673ZM85.9374 2.768C90.19 2.768 93.7988 3.47679 96.8153 4.82902L98.4515 1.17898C94.8174 -0.450127 90.6289 -1.232 85.9374 -1.232V2.768ZM96.8531 4.8455C99.9284 6.14858 102.214 7.98356 103.806 10.3216L107.113 8.07042C105.035 5.0191 102.104 2.72608 98.4137 1.16249L96.8531 4.8455ZM103.834 10.3618C105.455 12.6213 106.297 15.3269 106.297 18.57H110.297C110.297 14.5891 109.248 11.0454 107.085 8.03018L103.834 10.3618ZM106.297 18.57C106.297 21.547 105.673 24.3176 104.43 26.9065L108.036 28.6375C109.546 25.4931 110.297 22.129 110.297 18.57H106.297ZM104.43 26.9065C103.213 29.4424 100.757 32.5089 96.8754 36.1097L99.5955 39.0423C103.625 35.3045 106.502 31.8349 108.036 28.6375L104.43 26.9065ZM96.8625 36.1217L83.0165 49.1937L85.7624 52.1023L99.6084 39.0303L96.8625 36.1217ZM84.3894 52.648H110.275V48.648H84.3894V52.648ZM128.13 29.836L126.647 31.1786L126.661 31.1932L126.674 31.2076L128.13 29.836ZM128.13 5.67L126.661 4.31229L126.66 4.31344L128.13 5.67ZM149.716 5.67L148.233 7.01256L148.24 7.01959L148.246 7.02656L149.716 5.67ZM149.716 29.836L151.185 31.1926L151.192 31.1856L151.198 31.1786L149.716 29.836ZM174.828 1.8V-0.200005H173.772L173.176 0.672152L174.828 1.8ZM185.062 1.8L186.714 2.92784L188.849 -0.200005H185.062V1.8ZM143.954 62V64H145.01L145.605 63.1278L143.954 62ZM133.72 62L132.068 60.8722L129.932 64H133.72V62ZM143.524 24.848L141.896 23.6855L141.882 23.7051L141.869 23.725L143.524 24.848ZM143.524 10.572L141.869 11.695L141.882 11.7149L141.896 11.7345L143.524 10.572ZM134.408 10.658L136.035 11.8205L136.045 11.807L136.054 11.7935L134.408 10.658ZM134.408 24.848L132.761 25.9835L132.771 25.997L132.78 26.0105L134.408 24.848ZM172.076 60.71L171.028 62.4133L171.053 62.4289L171.079 62.4438L172.076 60.71ZM166.83 54.862L168.619 53.9676L166.83 54.862ZM166.83 37.318L168.619 38.2124L166.83 37.318ZM172.076 31.556L173.092 33.2787L173.098 33.2749L173.105 33.271L172.076 31.556ZM190.566 34.05L189.083 35.3926L189.097 35.4072L189.11 35.4216L190.566 34.05ZM190.566 58.216L189.097 56.8583L189.096 56.8594L190.566 58.216ZM184.374 53.228L182.727 52.0925L182.723 52.0987L182.719 52.105L184.374 53.228ZM184.374 39.038L182.701 40.1341L182.723 40.1677L182.746 40.2005L184.374 39.038ZM175.258 38.952L176.885 40.1145L175.258 38.952ZM138.966 32.308C135.054 32.308 131.985 31.0112 129.585 28.4644L126.674 31.2076C129.893 34.6235 134.048 36.308 138.966 36.308V32.308ZM129.612 28.4934C127.266 25.9026 126.002 22.3788 126.002 17.71H122.002C122.002 23.1318 123.49 27.6921 126.647 31.1786L129.612 28.4934ZM126.002 17.71C126.002 13.0395 127.266 9.55408 129.599 7.02656L126.66 4.31344C123.489 7.74858 122.002 12.2899 122.002 17.71H126.002ZM129.598 7.02771C132.002 4.42822 135.067 3.112 138.966 3.112V-0.888C134.035 -0.888 129.877 0.834446 126.661 4.31229L129.598 7.02771ZM138.966 3.112C142.864 3.112 145.892 4.42734 148.233 7.01256L151.198 4.32744C148.036 0.835321 143.897 -0.888 138.966 -0.888V3.112ZM148.246 7.02656C150.579 9.55408 151.844 13.0395 151.844 17.71H155.844C155.844 12.2899 154.356 7.74858 151.185 4.31344L148.246 7.02656ZM151.844 17.71C151.844 22.3788 150.58 25.9026 148.233 28.4934L151.198 31.1786C154.356 27.6921 155.844 23.1318 155.844 17.71H151.844ZM148.246 28.4794C145.909 31.0119 142.877 32.308 138.966 32.308V36.308C143.884 36.308 148.019 34.6227 151.185 31.1926L148.246 28.4794ZM174.828 3.8H185.062V-0.200005H174.828V3.8ZM183.41 0.672152L142.302 60.8722L145.605 63.1278L186.714 2.92784L183.41 0.672152ZM143.954 60H133.72V64H143.954V60ZM135.371 63.1278L176.479 2.92784L173.176 0.672152L132.068 60.8722L135.371 63.1278ZM138.966 29.256C141.574 29.256 143.715 28.128 145.179 25.971L141.869 23.725C141.154 24.7786 140.256 25.256 138.966 25.256V29.256ZM145.151 26.0105C146.646 23.9175 147.244 21.0504 147.244 17.71H143.244C143.244 20.6763 142.695 22.5678 141.896 23.6855L145.151 26.0105ZM147.244 17.71C147.244 14.3696 146.646 11.5025 145.151 9.40952L141.896 11.7345C142.695 12.8522 143.244 14.7437 143.244 17.71H147.244ZM145.179 9.44899C143.715 7.29197 141.574 6.164 138.966 6.164V10.164C140.256 10.164 141.154 10.6414 141.869 11.695L145.179 9.44899ZM138.966 6.164C136.365 6.164 134.252 7.36176 132.761 9.52254L136.054 11.7935C136.857 10.6289 137.782 10.164 138.966 10.164V6.164ZM132.78 9.49552C131.289 11.5836 130.688 14.4175 130.688 17.71H134.688C134.688 14.8105 135.233 12.9431 136.035 11.8205L132.78 9.49552ZM130.688 17.71C130.688 21.0098 131.292 23.8524 132.761 25.9835L136.054 23.7125C135.231 22.5183 134.688 20.6022 134.688 17.71H130.688ZM132.78 26.0105C134.284 28.1149 136.396 29.256 138.966 29.256V25.256C137.752 25.256 136.826 24.7918 136.035 23.6855L132.78 26.0105ZM179.816 60.688C177.269 60.688 175.038 60.106 173.073 58.9762L171.079 62.4438C173.701 63.9513 176.629 64.688 179.816 64.688V60.688ZM173.124 59.0067C171.229 57.8406 169.726 56.1826 168.619 53.9676L165.041 55.7564C166.456 58.5867 168.451 60.8274 171.028 62.4133L173.124 59.0067ZM168.619 53.9676C167.519 51.7682 166.938 49.1602 166.938 46.09H162.938C162.938 49.6705 163.618 52.9105 165.041 55.7564L168.619 53.9676ZM166.938 46.09C166.938 43.0198 167.519 40.4118 168.619 38.2124L165.041 36.4236C163.618 39.2695 162.938 42.5095 162.938 46.09H166.938ZM168.619 38.2124C169.723 36.0035 171.217 34.3846 173.092 33.2787L171.06 29.8333C168.463 31.3647 166.459 33.5872 165.041 36.4236L168.619 38.2124ZM173.105 33.271C175.065 32.0949 177.285 31.492 179.816 31.492V27.492C176.614 27.492 173.673 28.2651 171.047 29.841L173.105 33.271ZM179.816 31.492C183.714 31.492 186.742 32.8073 189.083 35.3926L192.048 32.7074C188.886 29.2153 184.747 27.492 179.816 27.492V31.492ZM189.11 35.4216C191.493 37.9503 192.78 41.4303 192.78 46.09H196.78C196.78 40.659 195.257 36.1123 192.021 32.6784L189.11 35.4216ZM192.78 46.09C192.78 50.7481 191.494 54.2664 189.097 56.8583L192.034 59.5737C195.257 56.0882 196.78 51.5226 196.78 46.09H192.78ZM189.096 56.8594C186.759 59.3919 183.727 60.688 179.816 60.688V64.688C184.734 64.688 188.869 63.0027 192.035 59.5726L189.096 56.8594ZM179.816 57.636C182.424 57.636 184.565 56.508 186.029 54.351L182.719 52.105C182.004 53.1586 181.106 53.636 179.816 53.636V57.636ZM186.02 54.3635C187.49 52.2324 188.094 49.3898 188.094 46.09H184.094C184.094 48.9822 183.551 50.8983 182.727 52.0925L186.02 54.3635ZM188.094 46.09C188.094 42.7975 187.493 39.9636 186.001 37.8755L182.746 40.2005C183.548 41.3231 184.094 43.1905 184.094 46.09H188.094ZM186.047 37.9419C184.597 35.7286 182.455 34.544 179.816 34.544V38.544C181.075 38.544 181.972 39.022 182.701 40.1341L186.047 37.9419ZM179.816 34.544C177.246 34.544 175.134 35.6851 173.63 37.7895L176.885 40.1145C177.676 39.0082 178.602 38.544 179.816 38.544V34.544ZM173.63 37.7895C172.135 39.8825 171.538 42.7496 171.538 46.09H175.538C175.538 43.1237 176.087 41.2322 176.885 40.1145L173.63 37.7895ZM171.538 46.09C171.538 49.4304 172.135 52.2975 173.63 54.3905L176.885 52.0655C176.087 50.9478 175.538 49.0563 175.538 46.09H171.538ZM173.63 54.3905C175.134 56.4949 177.246 57.636 179.816 57.636V53.636C178.602 53.636 177.676 53.1718 176.885 52.0655L173.63 54.3905Z" fill="url(#paint0_linear_188_5980)"/>
<defs>
<linearGradient id="paint0_linear_188_5980" x1="-3" y1="31.5" x2="198" y2="31.5" gradientUnits="userSpaceOnUse">
<stop stop-color="#F7941D"/>
<stop offset="1" stop-color="#27AAE1"/>
</linearGradient>
</defs>
</svg>
