<svg width="333" height="64" viewBox="0 0 333 64" fill="none" xmlns="http://www.w3.org/2000/svg">
<path d="M43.29 8.508L41.8197 9.8639L41.8273 9.87205L43.29 8.508ZM46.558 48.154L44.7904 47.2182L44.7861 47.2264L44.7819 47.2346L46.558 48.154ZM35.808 59.248L36.7627 61.0054L35.808 59.248ZM10.524 62L10.03 63.938L10.0479 63.9426L10.0659 63.9468L10.524 62ZM3.042 58.904L1.25616 58.0036L0.4428 59.6167L1.96522 60.5894L3.042 58.904ZM8.202 48.67L9.33369 47.021L7.44658 45.7259L6.41616 47.7696L8.202 48.67ZM31.594 47.208L33.0082 48.6222L33.0149 48.6155L33.0216 48.6087L31.594 47.208ZM36.41 34.136L38.4084 34.2167L38.615 29.1026L34.9958 32.7218L36.41 34.136ZM10.954 37.232L11.8353 35.4367L10.954 37.232ZM3.472 30.696L1.78746 31.7741L1.79242 31.7819L1.79746 31.7896L3.472 30.696ZM3.73 10.228L2.06107 9.12587H2.06107L3.73 10.228ZM11.9 3.262L12.7458 5.07436L12.7523 5.07134L12.7587 5.06827L11.9 3.262ZM31.938 26.654L33.2582 28.1563L33.2612 28.1537L31.938 26.654ZM32.024 13.668L30.681 15.15L30.6923 15.1602L30.7038 15.1703L32.024 13.668ZM17.06 13.582L15.766 12.057L15.7544 12.0668L15.743 12.0768L17.06 13.582ZM17.06 26.74L15.717 28.222L15.7412 28.2439L15.766 28.265L17.06 26.74ZM23.51 2.768C31.501 2.768 37.5149 5.196 41.8198 9.86388L44.7602 7.15211C39.5477 1.5 32.375 -1.232 23.51 -1.232V2.768ZM41.8273 9.87205C46.1277 14.4832 48.428 21.2898 48.428 30.61H52.428C52.428 20.6662 49.9697 12.7381 44.7527 7.14395L41.8273 9.87205ZM48.428 30.61C48.428 37.1827 47.1857 42.6938 44.7904 47.2182L48.3256 49.0898C51.0903 43.8676 52.428 37.6827 52.428 30.61H48.428ZM44.7819 47.2346C42.4356 51.7672 39.1319 55.1664 34.8533 57.4906L36.7627 61.0054C41.7721 58.2842 45.6351 54.2875 48.3341 49.0734L44.7819 47.2346ZM34.8533 57.4906C30.5437 59.8316 25.5203 61.032 19.726 61.032V65.032C26.0864 65.032 31.7843 63.7097 36.7627 61.0054L34.8533 57.4906ZM19.726 61.032C16.659 61.032 13.746 60.7035 10.9821 60.0532L10.0659 63.9468C13.15 64.6725 16.3716 65.032 19.726 65.032V61.032ZM11.018 60.062C8.25446 59.3575 5.96715 58.3995 4.11878 57.2186L1.96522 60.5894C4.24485 62.0458 6.94554 63.1518 10.03 63.938L11.018 60.062ZM4.82784 59.8044L9.98784 49.5704L6.41616 47.7696L1.25616 58.0036L4.82784 59.8044ZM7.07032 50.319C10.4129 52.6129 14.5951 53.68 19.468 53.68V49.68C15.1676 49.68 11.8391 48.7404 9.33369 47.021L7.07032 50.319ZM19.468 53.68C24.9821 53.68 29.5753 52.0552 33.0082 48.6222L30.1798 45.7938C27.6501 48.3235 24.1593 49.68 19.468 49.68V53.68ZM33.0216 48.6087C36.4527 45.1116 38.1658 40.2196 38.4084 34.2167L34.4116 34.0553C34.1955 39.4044 32.698 43.227 30.1664 45.8073L33.0216 48.6087ZM34.9958 32.7218C31.8463 35.8713 27.4175 37.554 21.446 37.554V41.554C28.2025 41.554 33.7497 39.6247 37.8242 35.5502L34.9958 32.7218ZM21.446 37.554C17.8812 37.554 14.6895 36.8378 11.8353 35.4367L10.0727 39.0273C13.5252 40.7222 17.3281 41.554 21.446 41.554V37.554ZM11.8353 35.4367C8.98886 34.0393 6.77526 32.0964 5.14654 29.6024L1.79746 31.7896C3.83807 34.9143 6.61247 37.3287 10.0727 39.0273L11.8353 35.4367ZM5.15654 29.6179C3.54727 27.1034 2.72 24.1882 2.72 20.806H-1.28C-1.28 24.8771 -0.272607 28.5553 1.78746 31.7741L5.15654 29.6179ZM2.72 20.806C2.72 17.1429 3.63006 14.0087 5.39893 11.3301L2.06107 9.12587C-0.183389 12.5246 -1.28 16.4424 -1.28 20.806H2.72ZM5.39893 11.3301C7.19318 8.61311 9.62557 6.53046 12.7458 5.07436L11.0542 1.44963C7.29443 3.2042 4.28015 5.76555 2.06107 9.12587L5.39893 11.3301ZM12.7587 5.06827C15.9629 3.54496 19.5356 2.768 23.51 2.768V-1.232C18.999 -1.232 14.8317 -0.346292 11.0413 1.45573L12.7587 5.06827ZM24.542 31.148C27.9615 31.148 30.9293 30.203 33.2582 28.1563L30.6178 25.1517C29.1627 26.4304 27.1999 27.148 24.542 27.148V31.148ZM33.2612 28.1537C35.648 26.0478 36.862 23.3196 36.862 20.118H32.862C32.862 22.191 32.1267 23.8202 30.6148 25.1543L33.2612 28.1537ZM36.862 20.118C36.862 16.9362 35.6909 14.2279 33.3442 12.1657L30.7038 15.1703C32.1411 16.4334 32.862 18.0251 32.862 20.118H36.862ZM33.367 12.186C31.0598 10.0951 27.9722 9.174 24.37 9.174V13.174C27.3038 13.174 29.3189 13.9156 30.681 15.15L33.367 12.186ZM24.37 9.174C21.0145 9.174 18.0889 10.0861 15.766 12.057L18.354 15.107C19.8151 13.8672 21.7629 13.174 24.37 13.174V9.174ZM15.743 12.0768C13.4156 14.1133 12.308 16.8721 12.308 20.118H16.308C16.308 17.8599 17.0351 16.2614 18.377 15.0872L15.743 12.0768ZM12.308 20.118C12.308 23.3645 13.4147 26.1356 15.717 28.222L18.403 25.258C17.036 24.0191 16.308 22.3755 16.308 20.118H12.308ZM15.766 28.265C18.1022 30.2472 21.0932 31.148 24.542 31.148V27.148C21.7988 27.148 19.8018 26.4435 18.354 25.215L15.766 28.265ZM106.476 30.352L105.447 28.637L102.323 30.5115L105.581 32.1409L106.476 30.352ZM113.27 36.2L111.587 37.2815L111.596 37.2955L111.606 37.3094L113.27 36.2ZM112.496 54.346L114.08 55.567L114.086 55.5591L114.092 55.5512L112.496 54.346ZM103.552 60.796L104.275 62.6605L104.287 62.6559L104.299 62.651L103.552 60.796ZM76.8918 60.796L76.1345 62.6471L76.1513 62.654L76.1683 62.6605L76.8918 60.796ZM68.0338 54.346L66.4221 55.5302L66.4357 55.5487L66.4498 55.567L68.0338 54.346ZM67.2598 36.2L65.5957 35.0906L65.5865 35.1045L65.5775 35.1185L67.2598 36.2ZM74.0538 30.352L74.9622 32.1338L78.136 30.5158L75.102 28.6487L74.0538 30.352ZM68.8938 25.192L67.1544 26.1792L67.1603 26.1895L67.1663 26.1997L68.8938 25.192ZM78.1818 2.918L78.9141 4.77913L78.9272 4.77396L78.9403 4.76861L78.1818 2.918ZM102.348 2.918L101.589 4.76861L101.608 4.77605L101.626 4.78313L102.348 2.918ZM110.604 8.852L112.2 7.64633V7.64633L110.604 8.852ZM111.722 25.192L113.449 26.1997L113.455 26.1895L113.461 26.1792L111.722 25.192ZM83.4278 13.066L84.6706 14.633L84.6772 14.6277L83.4278 13.066ZM83.4278 23.988L82.185 25.555L83.4278 23.988ZM97.1018 13.066L95.8524 14.6277L95.8686 14.6406L95.8849 14.6532L97.1018 13.066ZM98.4778 50.476L99.6994 52.0596L99.7057 52.0547L98.4778 50.476ZM98.4778 37.834L97.2562 39.4176L97.267 39.4259L97.2778 39.434L98.4778 37.834ZM82.0518 37.834L80.8302 36.2504L82.0518 37.834ZM82.0518 50.476L80.8302 52.0596L82.0518 50.476ZM105.581 32.1409C108.295 33.4976 110.264 35.2224 111.587 37.2815L114.952 35.1185C113.18 32.3616 110.619 30.1878 107.37 28.5631L105.581 32.1409ZM111.606 37.3094C112.972 39.3594 113.678 41.7466 113.678 44.542H117.678C117.678 41.0308 116.778 37.8566 114.934 35.0906L111.606 37.3094ZM113.678 44.542C113.678 47.8609 112.743 50.6997 110.9 53.1408L114.092 55.5512C116.491 52.3736 117.678 48.6764 117.678 44.542H113.678ZM110.912 53.125C109.046 55.5451 106.379 57.5004 102.804 58.941L104.299 62.651C108.407 60.9956 111.703 58.6509 114.08 55.567L110.912 53.125ZM102.828 58.9315C99.263 60.315 95.0735 61.032 90.2218 61.032V65.032C95.4608 65.032 100.158 64.2583 104.275 62.6605L102.828 58.9315ZM90.2218 61.032C85.3701 61.032 81.1806 60.315 77.6154 58.9315L76.1683 62.6605C80.2857 64.2583 84.9828 65.032 90.2218 65.032V61.032ZM77.6491 58.9449C74.1333 57.5066 71.4886 55.5519 69.6178 53.125L66.4498 55.567C68.8217 58.6441 72.0823 60.9894 76.1345 62.6471L77.6491 58.9449ZM69.6456 53.1618C67.8517 50.7201 66.9378 47.8739 66.9378 44.542H62.9378C62.9378 48.6635 64.088 52.3532 66.4221 55.5302L69.6456 53.1618ZM66.9378 44.542C66.9378 41.7318 67.6224 39.3345 68.9422 37.2815L65.5775 35.1185C63.8013 37.8815 62.9378 41.0456 62.9378 44.542H66.9378ZM68.9239 37.3094C70.3148 35.2231 72.302 33.49 74.9622 32.1338L73.1454 28.5702C69.9577 30.1953 67.4155 32.3609 65.5957 35.0906L68.9239 37.3094ZM75.102 28.6487C73.118 27.4277 71.6436 25.9367 70.6214 24.1843L67.1663 26.1997C68.552 28.5753 70.5176 30.5243 73.0056 32.0553L75.102 28.6487ZM70.6332 24.2048C69.6174 22.4152 69.0878 20.3537 69.0878 17.968H65.0878C65.0878 20.9716 65.7622 23.7262 67.1544 26.1792L70.6332 24.2048ZM69.0878 17.968C69.0878 14.8682 69.9424 12.2616 71.6075 10.0577L68.4161 7.64633C66.1826 10.6024 65.0878 14.0732 65.0878 17.968H69.0878ZM71.6075 10.0577C73.3009 7.81642 75.7029 6.04253 78.9141 4.77913L77.4496 1.05687C73.666 2.54546 70.6214 4.72757 68.4161 7.64633L71.6075 10.0577ZM78.9403 4.76861C82.1542 3.45141 85.9021 2.768 90.2218 2.768V-1.232C85.4828 -1.232 81.2041 -0.482079 77.4234 1.06739L78.9403 4.76861ZM90.2218 2.768C94.6025 2.768 98.3782 3.45255 101.589 4.76861L103.106 1.06739C99.3228 -0.483225 95.0145 -1.232 90.2218 -1.232V2.768ZM101.626 4.78313C104.896 6.04916 107.32 7.82398 109.008 10.0577L112.2 7.64633C109.989 4.72001 106.909 2.53883 103.07 1.05286L101.626 4.78313ZM109.008 10.0577C110.673 12.2616 111.528 14.8682 111.528 17.968H115.528C115.528 14.0732 114.433 10.6024 112.2 7.64633L109.008 10.0577ZM111.528 17.968C111.528 20.3537 110.998 22.4152 109.982 24.2048L113.461 26.1792C114.853 23.7262 115.528 20.9716 115.528 17.968H111.528ZM109.994 24.1843C108.979 25.9241 107.487 27.4132 105.447 28.637L107.505 32.067C110.052 30.5388 112.056 28.5879 113.449 26.1997L109.994 24.1843ZM90.2218 9.002C87.0855 9.002 84.341 9.7742 82.1784 11.5043L84.6772 14.6277C85.9546 13.6058 87.7395 13.002 90.2218 13.002V9.002ZM82.185 11.499C79.9882 13.2413 78.9338 15.6838 78.9338 18.57H82.9338C82.9338 16.7549 83.5421 15.528 84.6706 14.633L82.185 11.499ZM78.9338 18.57C78.9338 21.4173 80.0014 23.8231 82.185 25.555L84.6706 22.421C83.5289 21.5155 82.9338 20.3094 82.9338 18.57H78.9338ZM82.185 25.555C84.3076 27.2384 87.0615 27.966 90.2218 27.966V23.966C87.6488 23.966 85.8734 23.3749 84.6706 22.421L82.185 25.555ZM90.2218 27.966C93.3867 27.966 96.1516 27.2366 98.3187 25.5752L95.8849 22.4008C94.612 23.3767 92.7903 23.966 90.2218 23.966V27.966ZM98.3187 25.5752C100.565 23.8532 101.682 21.4434 101.682 18.57H97.6818C97.6818 20.2833 97.0788 21.4855 95.8849 22.4008L98.3187 25.5752ZM101.682 18.57C101.682 15.658 100.579 13.2114 98.3187 11.4788L95.8849 14.6532C97.065 15.5579 97.6818 16.7807 97.6818 18.57H101.682ZM98.3512 11.5043C96.1819 9.76884 93.4044 9.002 90.2218 9.002V13.002C92.7725 13.002 94.5817 13.6112 95.8524 14.6277L98.3512 11.5043ZM90.2218 54.798C93.9959 54.798 97.2312 53.9636 99.6994 52.0596L97.2562 48.8924C95.7111 50.0844 93.4424 50.798 90.2218 50.798V54.798ZM99.7057 52.0547C102.262 50.0666 103.574 47.3603 103.574 44.112H99.5738C99.5738 46.1384 98.8219 47.6747 97.2499 48.8973L99.7057 52.0547ZM103.574 44.112C103.574 40.8616 102.258 38.1695 99.6778 36.234L97.2778 39.434C98.8252 40.5945 99.5738 42.0877 99.5738 44.112H103.574ZM99.6994 36.2504C97.2312 34.3464 93.9959 33.512 90.2218 33.512V37.512C93.4424 37.512 95.7111 38.2256 97.2562 39.4176L99.6994 36.2504ZM90.2218 33.512C86.4962 33.512 83.2933 34.3504 80.8302 36.2504L83.2734 39.4176C84.8237 38.2216 87.0674 37.512 90.2218 37.512V33.512ZM80.8302 36.2504C78.3099 38.1947 77.0418 40.8841 77.0418 44.112H81.0418C81.0418 42.0653 81.7804 40.5693 83.2734 39.4176L80.8302 36.2504ZM77.0418 44.112C77.0418 47.3812 78.2978 50.106 80.8302 52.0596L83.2734 48.8924C81.7925 47.75 81.0418 46.2322 81.0418 44.112H77.0418ZM80.8302 52.0596C83.2933 53.9596 86.4962 54.798 90.2218 54.798V50.798C87.0674 50.798 84.8237 50.0884 83.2734 48.8924L80.8302 52.0596ZM209.879 1.8H211.879V-0.200005H209.879V1.8ZM209.879 10.83L211.711 11.6308L211.879 11.2479V10.83H209.879ZM187.519 62V64H188.827L189.351 62.8008L187.519 62ZM172.383 62L170.553 61.1916L169.312 64H172.383V62ZM193.969 13.152L195.798 13.9604L197.039 11.152H193.969V13.152ZM174.017 13.152V11.152H172.017V13.152H174.017ZM174.017 22.956V24.956H176.017V22.956H174.017ZM161.633 22.956H159.633V24.956H161.633V22.956ZM161.633 1.8V-0.200005H159.633V1.8H161.633ZM207.879 1.8V10.83H211.879V1.8H207.879ZM208.046 10.0292L185.686 61.1992L189.351 62.8008L211.711 11.6308L208.046 10.0292ZM187.519 60H172.383V64H187.519V60ZM174.212 62.8084L195.798 13.9604L192.139 12.3436L170.553 61.1916L174.212 62.8084ZM193.969 11.152H174.017V15.152H193.969V11.152ZM172.017 13.152V22.956H176.017V13.152H172.017ZM174.017 20.956H161.633V24.956H174.017V20.956ZM163.633 22.956V1.8H159.633V22.956H163.633ZM161.633 3.8H209.879V-0.200005H161.633V3.8ZM265.187 8.508L263.717 9.8639L263.724 9.87205L265.187 8.508ZM268.455 48.154L266.687 47.2182L266.683 47.2264L266.679 47.2346L268.455 48.154ZM257.705 59.248L258.659 61.0054L257.705 59.248ZM232.421 62L231.927 63.938L231.945 63.9426L231.963 63.9468L232.421 62ZM224.939 58.904L223.153 58.0036L222.34 59.6167L223.862 60.5894L224.939 58.904ZM230.099 48.67L231.23 47.021L229.343 45.7259L228.313 47.7696L230.099 48.67ZM253.491 47.208L254.905 48.6222L254.912 48.6155L254.918 48.6087L253.491 47.208ZM258.307 34.136L260.305 34.2167L260.512 29.1026L256.893 32.7218L258.307 34.136ZM232.851 37.232L233.732 35.4367L232.851 37.232ZM225.369 30.696L223.684 31.7741L223.689 31.7819L223.694 31.7896L225.369 30.696ZM225.627 10.228L223.958 9.12587L225.627 10.228ZM233.797 3.262L234.643 5.07436L234.649 5.07134L234.656 5.06827L233.797 3.262ZM253.835 26.654L255.155 28.1563L255.158 28.1537L253.835 26.654ZM253.921 13.668L252.578 15.15L252.589 15.1602L252.601 15.1703L253.921 13.668ZM238.957 13.582L237.663 12.057L237.651 12.0668L237.64 12.0768L238.957 13.582ZM238.957 26.74L237.614 28.222L237.638 28.2439L237.663 28.265L238.957 26.74ZM245.407 2.768C253.398 2.768 259.412 5.196 263.717 9.86388L266.657 7.15211C261.445 1.5 254.272 -1.232 245.407 -1.232V2.768ZM263.724 9.87205C268.024 14.4832 270.325 21.2898 270.325 30.61H274.325C274.325 20.6662 271.866 12.7381 266.649 7.14395L263.724 9.87205ZM270.325 30.61C270.325 37.1827 269.083 42.6938 266.687 47.2182L270.222 49.0898C272.987 43.8676 274.325 37.6827 274.325 30.61H270.325ZM266.679 47.2346C264.332 51.7672 261.029 55.1664 256.75 57.4906L258.659 61.0054C263.669 58.2842 267.532 54.2875 270.231 49.0734L266.679 47.2346ZM256.75 57.4906C252.44 59.8316 247.417 61.032 241.623 61.032V65.032C247.983 65.032 253.681 63.7097 258.659 61.0054L256.75 57.4906ZM241.623 61.032C238.556 61.032 235.643 60.7035 232.879 60.0532L231.963 63.9468C235.047 64.6725 238.268 65.032 241.623 65.032V61.032ZM232.915 60.062C230.151 59.3575 227.864 58.3995 226.016 57.2186L223.862 60.5894C226.142 62.0458 228.842 63.1518 231.927 63.938L232.915 60.062ZM226.725 59.8044L231.885 49.5704L228.313 47.7696L223.153 58.0036L226.725 59.8044ZM228.967 50.319C232.31 52.6129 236.492 53.68 241.365 53.68V49.68C237.064 49.68 233.736 48.7404 231.23 47.021L228.967 50.319ZM241.365 53.68C246.879 53.68 251.472 52.0552 254.905 48.6222L252.077 45.7938C249.547 48.3235 246.056 49.68 241.365 49.68V53.68ZM254.918 48.6087C258.349 45.1116 260.063 40.2196 260.305 34.2167L256.308 34.0553C256.092 39.4044 254.595 43.227 252.063 45.8073L254.918 48.6087ZM256.893 32.7218C253.743 35.8713 249.314 37.554 243.343 37.554V41.554C250.099 41.554 255.647 39.6247 259.721 35.5502L256.893 32.7218ZM243.343 37.554C239.778 37.554 236.586 36.8378 233.732 35.4367L231.969 39.0273C235.422 40.7222 239.225 41.554 243.343 41.554V37.554ZM233.732 35.4367C230.886 34.0393 228.672 32.0964 227.043 29.6024L223.694 31.7896C225.735 34.9143 228.509 37.3287 231.969 39.0273L233.732 35.4367ZM227.053 29.6179C225.444 27.1034 224.617 24.1882 224.617 20.806H220.617C220.617 24.8771 221.624 28.5553 223.684 31.7741L227.053 29.6179ZM224.617 20.806C224.617 17.1429 225.527 14.0087 227.296 11.3301L223.958 9.12587C221.713 12.5246 220.617 16.4424 220.617 20.806H224.617ZM227.296 11.3301C229.09 8.61311 231.522 6.53046 234.643 5.07436L232.951 1.44963C229.191 3.2042 226.177 5.76555 223.958 9.12587L227.296 11.3301ZM234.656 5.06827C237.86 3.54496 241.432 2.768 245.407 2.768V-1.232C240.896 -1.232 236.729 -0.346292 232.938 1.45573L234.656 5.06827ZM246.439 31.148C249.858 31.148 252.826 30.203 255.155 28.1563L252.515 25.1517C251.059 26.4304 249.097 27.148 246.439 27.148V31.148ZM255.158 28.1537C257.545 26.0478 258.759 23.3196 258.759 20.118H254.759C254.759 22.191 254.024 23.8202 252.512 25.1543L255.158 28.1537ZM258.759 20.118C258.759 16.9362 257.588 14.2279 255.241 12.1657L252.601 15.1703C254.038 16.4334 254.759 18.0251 254.759 20.118H258.759ZM255.264 12.186C252.957 10.0951 249.869 9.174 246.267 9.174V13.174C249.201 13.174 251.216 13.9156 252.578 15.15L255.264 12.186ZM246.267 9.174C242.911 9.174 239.986 10.0861 237.663 12.057L240.251 15.107C241.712 13.8672 243.66 13.174 246.267 13.174V9.174ZM237.64 12.0768C235.312 14.1133 234.205 16.8721 234.205 20.118H238.205C238.205 17.8599 238.932 16.2614 240.274 15.0872L237.64 12.0768ZM234.205 20.118C234.205 23.3645 235.312 26.1356 237.614 28.222L240.3 25.258C238.933 24.0191 238.205 22.3755 238.205 20.118H234.205ZM237.663 28.265C239.999 30.2472 242.99 31.148 246.439 31.148V27.148C243.696 27.148 241.699 26.4435 240.251 25.215L237.663 28.265ZM326.567 29.492L325.278 31.0213L325.288 31.0302L326.567 29.492ZM329.921 53.142L331.624 54.1902L331.628 54.183L331.633 54.1757L329.921 53.142ZM321.493 60.366L322.354 62.1712L322.365 62.1656L321.493 60.366ZM295.091 61.398L294.548 63.3231L294.564 63.3276L294.58 63.3318L295.091 61.398ZM284.685 56.582L282.907 55.6647L282.116 57.1973L283.516 58.2051L284.685 56.582ZM290.189 45.918L291.389 44.318L289.496 42.8987L288.411 45.0007L290.189 45.918ZM298.101 49.96L297.479 51.861L297.496 51.8664L297.512 51.8716L298.101 49.96ZM315.559 49.272L316.69 50.9215L315.559 49.272ZM315.387 37.662L314.31 39.3474L314.32 39.354L314.331 39.3606L315.387 37.662ZM289.157 35.684L287.165 35.502L286.966 37.684H289.157V35.684ZM292.253 1.8V-0.200005H290.427L290.261 1.61801L292.253 1.8ZM328.975 1.8H330.975V-0.200005H328.975V1.8ZM328.975 12.98V14.98H330.975V12.98H328.975ZM303.863 12.98V10.98H302.021L301.869 12.8151L303.863 12.98ZM302.917 24.418L300.923 24.2531L300.744 26.418H302.917V24.418ZM307.819 26.418C316.104 26.418 321.789 28.081 325.278 31.0213L327.856 27.9627C323.317 24.1376 316.504 22.418 307.819 22.418V26.418ZM325.288 31.0302C328.865 34.0026 330.673 37.9494 330.673 43.08H334.673C334.673 36.8586 332.409 31.7467 327.845 27.9538L325.288 31.0302ZM330.673 43.08C330.673 46.3979 329.848 49.3924 328.208 52.1083L331.633 54.1757C333.662 50.8143 334.673 47.1008 334.673 43.08H330.673ZM328.217 52.0938C326.619 54.6904 324.131 56.8641 320.62 58.5664L322.365 62.1656C326.422 60.1985 329.553 57.5562 331.624 54.1902L328.217 52.0938ZM320.632 58.5608C317.248 60.1746 312.947 61.032 307.647 61.032V65.032C313.354 65.032 318.284 64.1121 322.354 62.1712L320.632 58.5608ZM307.647 61.032C303.577 61.032 299.563 60.5099 295.601 59.4642L294.58 63.3318C298.874 64.4648 303.231 65.032 307.647 65.032V61.032ZM295.633 59.4729C291.744 58.3774 288.497 56.8625 285.853 54.9589L283.516 58.2051C286.605 60.4295 290.296 62.1252 294.548 63.3231L295.633 59.4729ZM286.462 57.4993L291.966 46.8353L288.411 45.0007L282.907 55.6647L286.462 57.4993ZM288.989 47.518C291.473 49.3811 294.309 50.8247 297.479 51.861L298.722 48.059C295.929 47.146 293.491 45.8949 291.389 44.318L288.989 47.518ZM297.512 51.8716C300.686 52.8482 303.952 53.336 307.303 53.336V49.336C304.346 49.336 301.477 48.9065 298.689 48.0484L297.512 51.8716ZM307.303 53.336C311.035 53.336 314.234 52.6056 316.69 50.9215L314.428 47.6225C312.87 48.6904 310.565 49.336 307.303 49.336V53.336ZM316.69 50.9215C319.249 49.1666 320.569 46.6243 320.569 43.51H316.569C316.569 45.3264 315.882 46.6254 314.428 47.6225L316.69 50.9215ZM320.569 43.51C320.569 40.2664 319.174 37.6614 316.442 35.9634L314.331 39.3606C315.842 40.2999 316.569 41.5936 316.569 43.51H320.569ZM316.463 35.9766C313.879 34.3252 309.754 33.684 304.551 33.684V37.684C309.668 37.684 312.767 38.3615 314.31 39.3474L316.463 35.9766ZM304.551 33.684H289.157V37.684H304.551V33.684ZM291.148 35.866L294.244 1.98198L290.261 1.61801L287.165 35.502L291.148 35.866ZM292.253 3.8H328.975V-0.200005H292.253V3.8ZM326.975 1.8V12.98H330.975V1.8H326.975ZM328.975 10.98H303.863V14.98H328.975V10.98ZM301.869 12.8151L300.923 24.2531L304.91 24.5829L305.856 13.1448L301.869 12.8151ZM302.917 26.418H307.819V22.418H302.917V26.418Z" fill="url(#paint0_linear_188_5983)"/>
<defs>
<linearGradient id="paint0_linear_188_5983" x1="-1" y1="31.5" x2="335" y2="31.5" gradientUnits="userSpaceOnUse">
<stop stop-color="#F7941D"/>
<stop offset="1" stop-color="#27AAE1"/>
</linearGradient>
</defs>
</svg>
