<svg width="131" height="130" viewBox="0 0 131 130" fill="none" xmlns="http://www.w3.org/2000/svg">
<path d="M128.793 32.8195L128.774 32.837L128.755 32.8556L100.679 60.9317C98.5091 63.1017 98.5091 66.8983 100.679 69.0683L128.755 97.1444C130.144 98.5333 130.144 101.064 128.755 102.453L103.249 127.958C101.861 129.347 99.3302 129.347 97.9413 127.958L69.8652 99.8823C67.6952 97.7123 63.8986 97.7123 61.7286 99.8823L33.6525 127.958C32.2635 129.347 29.7332 129.347 28.3443 127.958L2.83858 102.453C1.44964 101.064 1.44964 98.5333 2.83858 97.1444L30.9146 69.0683C33.0846 66.8983 33.0846 63.1017 30.9146 60.9317L2.83858 32.8556C1.44964 31.4667 1.44964 28.9363 2.83858 27.5474L28.3443 2.04171C29.7332 0.652764 32.2635 0.652764 33.6525 2.04171L61.7286 30.1178C63.8986 32.2877 67.6952 32.2877 69.8652 30.1178L97.9413 2.04171C99.3302 0.652764 101.861 0.652764 103.249 2.04171L128.755 27.5474C130.364 29.1559 130.307 31.4569 128.793 32.8195Z" stroke="url(#paint0_linear_163_3429)" stroke-width="2"/>
<defs>
<linearGradient id="paint0_linear_163_3429" x1="0.796875" y1="65" x2="130.945" y2="65" gradientUnits="userSpaceOnUse">
<stop stop-color="#F7941D"/>
<stop offset="1" stop-color="#27AAE1"/>
</linearGradient>
</defs>
</svg>
